<svg width="23" height="23" viewBox="0 0 23 23" fill="none" xmlns="http://www.w3.org/2000/svg">
<path fill-rule="evenodd" clip-rule="evenodd" d="M7.0411 2.33728C7.54736 2.33728 7.95776 2.74769 7.95776 3.25395V4.17061H15.2911V3.25395C15.2911 2.74769 15.7015 2.33728 16.2078 2.33728C16.714 2.33728 17.1244 2.74769 17.1244 3.25395V4.17061H18.0411C19.5599 4.17061 20.7911 5.40183 20.7911 6.92061V17.9206C20.7911 19.4394 19.5599 20.6706 18.0411 20.6706H5.20776C3.68898 20.6706 2.45776 19.4394 2.45776 17.9206V6.92061C2.45776 5.40183 3.68898 4.17061 5.20776 4.17061H6.12443V3.25395C6.12443 2.74769 6.53484 2.33728 7.0411 2.33728ZM15.2911 6.00395V6.92061C15.2911 7.42687 15.7015 7.83728 16.2078 7.83728C16.714 7.83728 17.1244 7.42687 17.1244 6.92061V6.00395H18.0411C18.5474 6.00395 18.9578 6.41435 18.9578 6.92061V9.67061H4.2911V6.92061C4.2911 6.41435 4.7015 6.00395 5.20776 6.00395H6.12443V6.92061C6.12443 7.42687 6.53484 7.83728 7.0411 7.83728C7.54736 7.83728 7.95776 7.42687 7.95776 6.92061V6.00395H15.2911ZM4.2911 11.5039V17.9206C4.2911 18.4269 4.7015 18.8373 5.20776 18.8373H18.0411C18.5474 18.8373 18.9578 18.4269 18.9578 17.9206V11.5039H4.2911Z" fill="#6F767E"/>
</svg>
