<svg width="151" height="133" viewBox="0 0 151 133" fill="none" xmlns="http://www.w3.org/2000/svg">
<path d="M8.62898 119.415C7.11432 119.415 5.98365 119.404 5.23698 119.383V98.0708C6.15432 98.0495 7.50898 98.0388 9.30098 98.0388C11.1143 98.0388 12.469 98.0495 13.365 98.0708C15.4557 98.0921 17.269 98.5188 18.805 99.3508C20.3623 100.161 21.557 101.324 22.389 102.839C23.2423 104.353 23.669 106.124 23.669 108.151C23.669 110.369 23.1783 112.321 22.197 114.007C21.237 115.692 19.8717 117.004 18.101 117.943C16.3517 118.881 14.3143 119.361 11.989 119.383C11.2423 119.404 10.1223 119.415 8.62898 119.415ZM11.957 115.351C14.1117 115.351 15.8077 114.721 17.045 113.463C18.2823 112.204 18.901 110.476 18.901 108.279C18.901 106.295 18.3677 104.769 17.301 103.703C16.2557 102.636 14.741 102.103 12.757 102.103H9.87698V115.351H11.957ZM33.9212 119.863C32.2572 119.863 30.7852 119.5 29.5052 118.775C28.2466 118.049 27.2652 117.036 26.5612 115.735C25.8572 114.412 25.5052 112.887 25.5052 111.159C25.5052 109.431 25.8466 107.916 26.5292 106.615C27.2332 105.292 28.2146 104.268 29.4732 103.543C30.7532 102.817 32.2252 102.455 33.8892 102.455C35.5532 102.455 37.0146 102.817 38.2732 103.543C39.5532 104.247 40.5346 105.249 41.2172 106.551C41.9212 107.852 42.2732 109.356 42.2732 111.063C42.2732 112.791 41.9212 114.327 41.2172 115.671C40.5346 116.993 39.5532 118.028 38.2732 118.775C37.0146 119.5 35.5639 119.863 33.9212 119.863ZM33.8892 115.959C35.0412 115.959 35.9586 115.521 36.6412 114.647C37.3452 113.751 37.6972 112.577 37.6972 111.127C37.6972 109.676 37.3452 108.524 36.6412 107.671C35.9586 106.796 35.0412 106.359 33.8892 106.359C32.7372 106.359 31.8092 106.796 31.1052 107.671C30.4226 108.524 30.0812 109.676 30.0812 111.127C30.0812 112.577 30.4226 113.751 31.1052 114.647C31.8092 115.521 32.7372 115.959 33.8892 115.959ZM52.43 119.863C50.766 119.863 49.294 119.5 48.014 118.775C46.7553 118.049 45.774 117.036 45.07 115.735C44.366 114.412 44.014 112.887 44.014 111.159C44.014 109.431 44.3553 107.916 45.038 106.615C45.742 105.292 46.7233 104.268 47.982 103.543C49.262 102.817 50.734 102.455 52.398 102.455C54.062 102.455 55.5233 102.817 56.782 103.543C58.062 104.247 59.0433 105.249 59.726 106.551C60.43 107.852 60.782 109.356 60.782 111.063C60.782 112.791 60.43 114.327 59.726 115.671C59.0433 116.993 58.062 118.028 56.782 118.775C55.5233 119.5 54.0727 119.863 52.43 119.863ZM52.398 115.959C53.55 115.959 54.4673 115.521 55.15 114.647C55.854 113.751 56.206 112.577 56.206 111.127C56.206 109.676 55.854 108.524 55.15 107.671C54.4673 106.796 53.55 106.359 52.398 106.359C51.246 106.359 50.318 106.796 49.614 107.671C48.9313 108.524 48.59 109.676 48.59 111.127C48.59 112.577 48.9313 113.751 49.614 114.647C50.318 115.521 51.246 115.959 52.398 115.959ZM63.2625 102.903H67.7745V105.591H68.0305C68.6491 104.503 69.2572 103.703 69.8545 103.191C70.4731 102.679 71.2411 102.423 72.1585 102.423C72.5425 102.423 72.8625 102.465 73.1185 102.551L72.6385 107.415C72.0838 107.265 71.6358 107.191 71.2945 107.191C70.8038 107.191 70.3665 107.287 69.9825 107.479C69.6198 107.671 69.2891 107.927 68.9905 108.247C68.7132 108.567 68.3078 109.057 67.7745 109.719V119.383H63.2625V102.903ZM95.9922 119.799C92.5789 119.799 89.9122 118.881 87.9922 117.047C86.0722 115.212 85.1122 112.62 85.1122 109.271C85.1122 106.988 85.5602 104.972 86.4562 103.223C87.3736 101.473 88.6642 100.129 90.3282 99.1908C91.9922 98.2308 93.9122 97.7508 96.0882 97.7508C97.8589 97.7508 99.5656 98.0708 101.208 98.7108L100.344 102.839C98.8936 102.177 97.4856 101.847 96.1202 101.847C94.1789 101.847 92.6429 102.487 91.5122 103.767C90.3816 105.025 89.8162 106.711 89.8162 108.823C89.8162 110.977 90.4136 112.652 91.6082 113.847C92.8029 115.041 94.4562 115.639 96.5682 115.639C97.9549 115.639 99.2989 115.415 100.6 114.967L101.304 118.903C99.7469 119.5 97.9762 119.799 95.9922 119.799ZM108.313 119.863C106.607 119.863 105.252 119.137 104.249 117.687C103.247 116.236 102.745 114.263 102.745 111.767C102.745 108.737 103.513 106.433 105.049 104.855C106.585 103.255 108.793 102.455 111.673 102.455C113.295 102.455 115.193 102.711 117.369 103.223V119.383H113.081L113.177 116.759H113.049C112.495 117.761 111.812 118.529 111.001 119.063C110.212 119.596 109.316 119.863 108.313 119.863ZM109.273 115.927C109.935 115.927 110.585 115.575 111.225 114.871C111.865 114.167 112.463 113.228 113.017 112.055V106.679C112.335 106.487 111.652 106.391 110.969 106.391C109.689 106.391 108.719 106.828 108.057 107.703C107.417 108.577 107.097 109.868 107.097 111.575C107.097 112.919 107.289 113.985 107.673 114.775C108.057 115.543 108.591 115.927 109.273 115.927ZM120.806 102.903H125.318V105.591H125.574C126.193 104.503 126.801 103.703 127.398 103.191C128.017 102.679 128.785 102.423 129.702 102.423C130.086 102.423 130.406 102.465 130.662 102.551L130.182 107.415C129.628 107.265 129.18 107.191 128.838 107.191C128.348 107.191 127.91 107.287 127.526 107.479C127.164 107.671 126.833 107.927 126.534 108.247C126.257 108.567 125.852 109.057 125.318 109.719V119.383H120.806V102.903ZM139.745 119.863C137.078 119.863 134.977 119.095 133.441 117.559C131.926 116.023 131.169 113.889 131.169 111.159C131.169 109.388 131.5 107.852 132.161 106.551C132.822 105.228 133.75 104.215 134.945 103.511C136.161 102.807 137.58 102.455 139.201 102.455C141.59 102.455 143.425 103.223 144.705 104.759C145.985 106.295 146.625 108.513 146.625 111.415C146.625 111.905 146.614 112.268 146.593 112.503H135.713C135.926 113.633 136.417 114.497 137.185 115.095C137.953 115.671 138.988 115.959 140.289 115.959C141.078 115.959 141.9 115.863 142.753 115.671C143.606 115.457 144.353 115.18 144.993 114.839L145.729 118.455C144.876 118.903 143.926 119.244 142.881 119.479C141.857 119.735 140.812 119.863 139.745 119.863ZM142.305 109.111C142.241 108.193 141.921 107.468 141.345 106.935C140.769 106.38 140.001 106.103 139.041 106.103C138.124 106.103 137.366 106.369 136.769 106.903C136.193 107.436 135.83 108.172 135.681 109.111H142.305Z" fill="#6759FF"/>
<path fill-rule="evenodd" clip-rule="evenodd" d="M68.96 2.0392C72.8507 -0.679733 78.1493 -0.679733 82.04 2.0392L105.5 18.4337C108.329 20.4108 110 23.5493 110 26.8869V60.3316H87.92V32.1955L75.5 23.516L63.08 32.1955V60.3316H41V26.8869C41 23.5493 42.6708 20.4108 45.5 18.4337L68.96 2.0392Z" fill="#6759FF"/>
<rect opacity="0.7" x="63.2219" y="60.3308" width="24.6703" height="16.9691" fill="#21F2FF"/>
</svg>
