<svg width="165" height="418" viewBox="0 0 165 418" fill="none" xmlns="http://www.w3.org/2000/svg">
<path d="M8.4573 417.037C6.72011 417.037 5.42334 417.024 4.56698 417V392.557C5.61908 392.533 7.17276 392.52 9.22802 392.52C11.3078 392.52 12.8614 392.533 13.8891 392.557C16.2869 392.582 18.3666 393.071 20.1283 394.025C21.9144 394.955 23.2845 396.288 24.2388 398.026C25.2175 399.763 25.7068 401.794 25.7068 404.118C25.7068 406.663 25.1441 408.901 24.0186 410.834C22.9175 412.767 21.3516 414.272 19.3208 415.348C17.3145 416.425 14.9779 416.976 12.3109 417C11.4546 417.024 10.17 417.037 8.4573 417.037ZM12.2742 412.376C14.7454 412.376 16.6906 411.654 18.1097 410.21C19.5288 408.767 20.2384 406.785 20.2384 404.265C20.2384 401.989 19.6267 400.24 18.4033 399.016C17.2044 397.793 15.4672 397.181 13.1917 397.181H9.88864V412.376H12.2742ZM37.4652 417.551C35.5568 417.551 33.8685 417.135 32.4005 416.303C30.9569 415.471 29.8314 414.309 29.024 412.816C28.2165 411.299 27.8128 409.55 27.8128 407.568C27.8128 405.586 28.2043 403.849 28.9873 402.356C29.7947 400.839 30.9202 399.665 32.3638 398.833C33.8318 398.001 35.5201 397.585 37.4285 397.585C39.337 397.585 41.013 398.001 42.4566 398.833C43.9246 399.64 45.0501 400.79 45.8331 402.283C46.6405 403.775 47.0442 405.5 47.0442 407.458C47.0442 409.44 46.6405 411.201 45.8331 412.743C45.0501 414.26 43.9246 415.446 42.4566 416.303C41.013 417.135 39.3492 417.551 37.4652 417.551ZM37.4285 413.073C38.7498 413.073 39.8019 412.571 40.5848 411.568C41.3922 410.541 41.796 409.195 41.796 407.531C41.796 405.867 41.3922 404.546 40.5848 403.567C39.8019 402.564 38.7498 402.063 37.4285 402.063C36.1073 402.063 35.0429 402.564 34.2355 403.567C33.4526 404.546 33.0611 405.867 33.0611 407.531C33.0611 409.195 33.4526 410.541 34.2355 411.568C35.0429 412.571 36.1073 413.073 37.4285 413.073ZM58.6931 417.551C56.7846 417.551 55.0964 417.135 53.6283 416.303C52.1848 415.471 51.0593 414.309 50.2518 412.816C49.4444 411.299 49.0407 409.55 49.0407 407.568C49.0407 405.586 49.4322 403.849 50.2151 402.356C51.0226 400.839 52.1481 399.665 53.5916 398.833C55.0597 398.001 56.7479 397.585 58.6564 397.585C60.5648 397.585 62.2409 398.001 63.6844 398.833C65.1525 399.64 66.278 400.79 67.0609 402.283C67.8684 403.775 68.2721 405.5 68.2721 407.458C68.2721 409.44 67.8684 411.201 67.0609 412.743C66.278 414.26 65.1525 415.446 63.6844 416.303C62.2409 417.135 60.5771 417.551 58.6931 417.551ZM58.6564 413.073C59.9776 413.073 61.0297 412.571 61.8127 411.568C62.6201 410.541 63.0238 409.195 63.0238 407.531C63.0238 405.867 62.6201 404.546 61.8127 403.567C61.0297 402.564 59.9776 402.063 58.6564 402.063C57.3351 402.063 56.2708 402.564 55.4634 403.567C54.6804 404.546 54.2889 405.867 54.2889 407.531C54.2889 409.195 54.6804 410.541 55.4634 411.568C56.2708 412.571 57.3351 413.073 58.6564 413.073ZM71.117 398.099H76.2918V401.182H76.5854C77.295 399.934 77.9923 399.016 78.6774 398.429C79.387 397.842 80.2678 397.548 81.3199 397.548C81.7603 397.548 82.1273 397.597 82.4209 397.695L81.8704 403.274C81.2342 403.103 80.7204 403.017 80.329 403.017C79.7662 403.017 79.2646 403.127 78.8242 403.347C78.4083 403.567 78.029 403.861 77.6865 404.228C77.3684 404.595 76.9035 405.158 76.2918 405.916V417H71.117V398.099ZM102.409 417.477C98.4939 417.477 95.4355 416.425 93.2334 414.321C91.0313 412.217 89.9303 409.244 89.9303 405.402C89.9303 402.784 90.4441 400.472 91.4718 398.466C92.5238 396.46 94.0041 394.918 95.9126 393.842C97.821 392.741 100.023 392.19 102.519 392.19C104.55 392.19 106.507 392.557 108.391 393.291L107.4 398.026C105.736 397.267 104.121 396.888 102.555 396.888C100.329 396.888 98.5673 397.622 97.2705 399.09C95.9738 400.533 95.3254 402.466 95.3254 404.889C95.3254 407.36 96.0105 409.281 97.3806 410.651C98.7508 412.021 100.647 412.706 103.069 412.706C104.66 412.706 106.201 412.449 107.694 411.935L108.501 416.449C106.715 417.135 104.684 417.477 102.409 417.477ZM116.54 417.551C114.582 417.551 113.029 416.719 111.879 415.055C110.729 413.391 110.154 411.128 110.154 408.265C110.154 404.791 111.035 402.148 112.796 400.338C114.558 398.503 117.09 397.585 120.393 397.585C122.253 397.585 124.43 397.879 126.926 398.466V417H122.008L122.118 413.991H121.972C121.335 415.14 120.552 416.021 119.623 416.633C118.717 417.245 117.69 417.551 116.54 417.551ZM117.641 413.036C118.399 413.036 119.146 412.633 119.88 411.825C120.614 411.018 121.299 409.941 121.935 408.595V402.43C121.152 402.209 120.369 402.099 119.586 402.099C118.118 402.099 117.005 402.601 116.246 403.604C115.512 404.607 115.145 406.088 115.145 408.045C115.145 409.586 115.365 410.81 115.806 411.715C116.246 412.596 116.858 413.036 117.641 413.036ZM130.868 398.099H136.043V401.182H136.337C137.046 399.934 137.743 399.016 138.429 398.429C139.138 397.842 140.019 397.548 141.071 397.548C141.511 397.548 141.878 397.597 142.172 397.695L141.622 403.274C140.985 403.103 140.472 403.017 140.08 403.017C139.517 403.017 139.016 403.127 138.575 403.347C138.159 403.567 137.78 403.861 137.438 404.228C137.12 404.595 136.655 405.158 136.043 405.916V417H130.868V398.099ZM152.589 417.551C149.531 417.551 147.121 416.67 145.359 414.908C143.622 413.146 142.753 410.7 142.753 407.568C142.753 405.537 143.132 403.775 143.891 402.283C144.649 400.766 145.714 399.604 147.084 398.796C148.479 397.989 150.106 397.585 151.965 397.585C154.706 397.585 156.81 398.466 158.278 400.228C159.746 401.989 160.48 404.534 160.48 407.861C160.48 408.424 160.468 408.84 160.443 409.109H147.965C148.209 410.406 148.772 411.397 149.653 412.082C150.534 412.743 151.721 413.073 153.213 413.073C154.118 413.073 155.06 412.963 156.039 412.743C157.018 412.498 157.874 412.18 158.608 411.788L159.452 415.936C158.474 416.449 157.385 416.841 156.186 417.11C155.011 417.404 153.812 417.551 152.589 417.551ZM155.525 405.219C155.452 404.167 155.085 403.335 154.424 402.723C153.764 402.087 152.883 401.769 151.782 401.769C150.73 401.769 149.861 402.075 149.176 402.687C148.515 403.298 148.099 404.142 147.928 405.219H155.525Z" fill="white"/>
<path fill-rule="evenodd" clip-rule="evenodd" d="M75.96 25.0392C79.8507 22.3203 85.1493 22.3203 89.04 25.0392L112.5 41.4337C115.329 43.4108 117 46.5493 117 49.8869V83.3316H94.92V55.1955L82.5 46.516L70.08 55.1955V83.3316H48V49.8869C48 46.5493 49.6708 43.4108 52.5 41.4337L75.96 25.0392Z" fill="#F7F7F7"/>
<rect opacity="0.7" x="70.2219" y="83.3309" width="24.6703" height="16.9691" fill="#EAEAEA"/>
</svg>
