<svg width="25" height="25" viewBox="0 0 25 25" fill="none" xmlns="http://www.w3.org/2000/svg">
<path d="M19.7725 11.8727H5.77245C4.66788 11.8727 3.77245 12.7681 3.77245 13.8727V20.8727C3.77245 21.9773 4.66788 22.8727 5.77245 22.8727H19.7725C20.877 22.8727 21.7725 21.9773 21.7725 20.8727V13.8727C21.7725 12.7681 20.877 11.8727 19.7725 11.8727Z" stroke="black" stroke-width="2" stroke-linecap="round" stroke-linejoin="round"/>
<path d="M7.77245 11.8727V7.87268C7.77245 6.5466 8.29924 5.27483 9.23692 4.33715C10.1746 3.39946 11.4464 2.87268 12.7725 2.87268C14.0985 2.87268 15.3703 3.39946 16.308 4.33715C17.2457 5.27483 17.7725 6.5466 17.7725 7.87268V11.8727" stroke="black" stroke-width="2" stroke-linecap="round" stroke-linejoin="round"/>
</svg>
